<svg xmlns="http://www.w3.org/2000/svg" width="70" height="70" viewBox="0 0 70 70"><defs><clipPath id="r04sa"><path fill="#fff" d="M35 0C15.67 0 0 15.67 0 35s15.67 35 35 35 35-15.67 35-35S54.33 0 35 0z"/></clipPath></defs><g><g><g opacity=".1"><path fill="#626262" d="M35 0C15.67 0 0 15.67 0 35s15.67 35 35 35 35-15.67 35-35S54.33 0 35 0z"/><path fill="none" stroke="#fff" stroke-miterlimit="20" stroke-width="2" d="M35 0C15.67 0 0 15.67 0 35s15.67 35 35 35 35-15.67 35-35S54.33 0 35 0z" clip-path="url(&quot;#r04sa&quot;)"/></g><g><g><text dominant-baseline="text-before-edge" style="line-height:18.99999px" fill="#fff" font-family="'ElegantIcons','ElegantIcons'" font-size="8" font-style="none" font-weight="400" transform="translate(29 25)"><tspan style="font-kerning:normal" letter-spacing=".8">4</tspan></text></g></g></g></g></svg>